<svg width="1857" height="500" viewBox="0 0 1857 500" fill="none" xmlns="http://www.w3.org/2000/svg">
<rect width="500" height="500" rx="20" fill="url(#paint0_linear_1585_1990)"/>
<path fill-rule="evenodd" clip-rule="evenodd" d="M263.353 80.5101C259.935 81.3727 256.079 83.2985 253.42 85.471C251.757 86.8293 230.51 114.836 169.769 195.744C124.986 255.393 87.3497 305.403 86.1314 306.876C78.2819 316.37 77.9395 329.287 85.2753 339.171C86.0731 340.246 103.514 357.856 124.031 378.305C160.279 414.428 161.429 415.527 164.578 417.049C170.419 419.871 176.555 420.555 182.469 419.044C186.751 417.95 189.228 416.638 193.517 413.193C195.487 411.61 205.684 403.871 216.177 395.995C226.67 388.117 244.084 375.034 254.874 366.918C331.553 309.246 355.628 291.143 382.032 271.306C398.505 258.931 412.785 247.914 413.763 246.827C417.38 242.812 419.826 236.156 419.826 230.339C419.826 225.409 418.104 219.862 415.327 215.839C414.656 214.868 385.137 185.07 349.73 149.622C280.765 80.5776 283.454 83.1152 277.101 81.0777C273.482 79.9168 266.797 79.6408 263.353 80.5101ZM269.599 109.165C265.04 109.983 260.008 112.647 257.096 115.786C256.257 116.69 251.559 122.586 246.655 128.89C236.258 142.257 176.895 218.234 157.224 243.355C149.789 252.849 143.706 260.733 143.706 260.877C143.706 261.214 150.943 265.871 155.567 268.513C161.175 271.717 172.735 277.276 178.329 279.461C192.45 284.975 201.083 286.836 215.289 287.433C225.459 287.86 231.833 288.74 239.904 290.836C254.593 294.65 271.78 302.828 284.876 312.238C286.801 313.62 288.405 314.491 288.701 314.316C290.315 313.35 385.805 241.502 386.569 240.676C388.202 238.914 390.535 234.663 391.394 231.886C392.598 227.989 392.535 221.542 391.257 217.792C389.113 211.509 391.548 214.085 338.701 162.2C324.331 148.092 307.508 131.555 301.316 125.451C295.118 119.34 288.975 113.664 287.649 112.821C282.745 109.706 275.155 108.169 269.599 109.165Z" fill="#FFFDFD"/>
<path d="M665.563 332.777C654.077 332.777 643.263 330.69 633.119 326.517C623.126 322.343 614.399 316.605 606.941 309.301C599.482 301.848 593.59 293.204 589.264 283.366C585.087 273.379 583 262.648 583 251.171C583 239.694 585.163 229.036 589.489 219.199C593.814 209.362 599.781 200.791 607.389 193.488C615.145 186.035 624.169 180.297 634.462 176.272C644.754 172.099 655.793 170.013 667.577 170.013C681.152 170.013 693.458 172.471 704.495 177.39C710.697 180.117 716.302 183.415 721.311 187.286C728.087 192.522 727.582 202.392 721.524 208.444V208.444C714.508 215.455 703.015 214.314 694.546 209.15C693.202 208.33 691.82 207.581 690.399 206.902C683.538 203.624 675.781 201.984 667.13 201.984C657.881 201.984 649.603 204.071 642.294 208.243C634.984 212.268 629.241 218.006 625.064 225.46C621.037 232.763 619.023 241.333 619.023 251.171C619.023 261.008 621.037 269.654 625.064 277.106C629.092 284.559 634.612 290.371 641.622 294.545C648.632 298.719 656.688 300.805 665.787 300.805C675.035 300.805 682.867 299.091 689.281 295.663C695.844 292.085 700.841 287.017 704.272 280.46C706.53 276.229 708.076 271.436 708.91 266.079C709.568 261.856 714.415 259.299 717.962 261.685V261.685C722.372 264.651 720.212 271.538 714.897 271.454L677.179 270.856C668.997 270.726 662.431 264.056 662.431 255.872V255.872C662.431 247.596 669.14 240.886 677.417 240.886H740.299C743.139 240.886 745.442 243.188 745.442 246.028V246.028C745.442 264.959 742.011 280.907 735.149 293.874C728.438 306.692 719.04 316.381 706.957 322.94C695.023 329.498 681.226 332.777 665.563 332.777ZM780.718 330.317C771.264 330.317 763.601 322.654 763.601 313.201V185.117C763.601 175.663 771.264 168 780.718 168V168C790.171 168 797.834 175.663 797.834 185.117V313.201C797.834 322.654 790.171 330.317 780.718 330.317V330.317ZM867.363 332.553C857.369 332.553 848.419 330.093 840.513 325.175C832.756 320.256 826.567 313.549 821.942 305.053C817.467 296.557 815.229 286.869 815.229 275.987C815.229 265.107 817.467 255.419 821.942 246.923C826.567 238.427 832.756 231.72 840.513 226.801C848.419 221.882 857.369 219.423 867.363 219.423C874.672 219.423 881.236 220.839 887.054 223.671C893.019 226.502 897.868 230.453 901.598 235.52C905.326 240.439 907.414 246.103 907.862 252.512V299.464C907.414 305.873 905.326 311.611 901.598 316.679C898.017 321.597 893.244 325.474 887.277 328.305C881.31 331.137 874.672 332.553 867.363 332.553ZM874.3 301.7C881.609 301.7 887.501 299.314 891.976 294.545C896.451 289.626 898.689 283.441 898.689 275.987C898.689 270.921 897.644 266.449 895.555 262.573C893.617 258.698 890.782 255.717 887.054 253.63C883.473 251.395 879.296 250.276 874.523 250.276C869.75 250.276 865.499 251.395 861.769 253.63C858.19 255.717 855.281 258.698 853.044 262.573C850.955 266.449 849.91 270.921 849.91 275.987C849.91 280.907 850.955 285.303 853.044 289.179C855.132 293.054 858.04 296.11 861.769 298.346C865.499 300.581 869.676 301.7 874.3 301.7ZM914.127 330.317C904.859 330.317 897.346 322.804 897.346 313.537V302.961C897.346 301.676 897.47 300.393 897.716 299.132L901.746 278.475C902.239 275.946 902.239 273.346 901.746 270.817L897.716 250.161C897.47 248.899 897.346 247.617 897.346 246.332V238.44C897.346 229.172 904.859 221.659 914.127 221.659V221.659C923.395 221.659 930.908 229.172 930.908 238.44V313.537C930.908 322.804 923.395 330.317 914.127 330.317V330.317ZM994.616 333C988.202 333 981.863 332.18 975.597 330.54C969.482 328.902 963.738 326.591 958.369 323.61C957.203 322.911 956.075 322.19 954.984 321.447C948.871 317.283 949.045 308.733 954.247 303.475V303.475C959.785 297.878 968.872 298.302 975.932 301.786C976.338 301.987 976.748 302.181 977.164 302.37C982.086 304.457 987.456 305.501 993.273 305.501C997.301 305.501 1000.36 304.904 1002.45 303.711C1004.68 302.52 1005.8 300.88 1005.8 298.793C1005.8 296.11 1004.46 294.098 1001.78 292.757C999.24 291.265 995.959 289.998 991.931 288.956C987.904 287.763 983.652 286.496 979.177 285.155C974.702 283.813 970.451 281.95 966.424 279.565C962.396 277.18 959.114 273.902 956.578 269.728C954.042 265.406 952.774 259.965 952.774 253.406C952.774 246.401 954.565 240.365 958.145 235.297C961.724 230.08 966.796 225.981 973.36 223C979.923 220.019 987.605 218.529 996.406 218.529C1005.65 218.529 1014.16 220.168 1021.91 223.447C1025.69 224.942 1029.13 226.794 1032.22 229.003C1037.98 233.117 1037.42 241.31 1032.44 246.343L1031.93 246.856C1026.42 252.425 1017.38 251.488 1010.05 248.711V248.711C1005.88 247.072 1001.78 246.253 997.749 246.253C993.87 246.253 990.961 246.848 989.023 248.041C987.083 249.084 986.114 250.649 986.114 252.736C986.114 254.972 987.382 256.76 989.918 258.101C992.454 259.444 995.734 260.635 999.763 261.679C1003.79 262.722 1008.04 263.989 1012.52 265.48C1016.99 266.97 1021.24 268.983 1025.27 271.516C1029.3 274.05 1032.58 277.479 1035.12 281.801C1037.65 285.975 1038.92 291.49 1038.92 298.346C1038.92 308.929 1034.89 317.349 1026.84 323.61C1018.93 329.87 1008.19 333 994.616 333ZM1097.1 333C1090.68 333 1084.34 332.18 1078.08 330.54C1071.96 328.902 1066.22 326.591 1060.85 323.61C1059.68 322.911 1058.55 322.19 1057.46 321.447C1051.35 317.283 1051.52 308.733 1056.73 303.475V303.475C1062.26 297.878 1071.35 298.302 1078.41 301.786C1078.82 301.987 1079.23 302.181 1079.64 302.37C1084.57 304.457 1089.94 305.501 1095.75 305.501C1099.78 305.501 1102.84 304.904 1104.93 303.711C1107.16 302.52 1108.28 300.88 1108.28 298.793C1108.28 296.11 1106.94 294.098 1104.26 292.757C1101.72 291.265 1098.44 289.998 1094.41 288.956C1090.38 287.763 1086.13 286.496 1081.66 285.155C1077.18 283.813 1072.93 281.95 1068.9 279.565C1064.88 277.18 1061.59 273.902 1059.06 269.728C1056.52 265.406 1055.25 259.965 1055.25 253.406C1055.25 246.401 1057.04 240.365 1060.62 235.297C1064.2 230.08 1069.28 225.981 1075.84 223C1082.4 220.019 1090.08 218.529 1098.89 218.529C1108.13 218.529 1116.64 220.168 1124.39 223.447C1128.17 224.942 1131.61 226.794 1134.7 229.003C1140.46 233.117 1139.9 241.31 1134.92 246.343L1134.41 246.856C1128.9 252.425 1119.86 251.488 1112.53 248.711V248.711C1108.36 247.072 1104.26 246.253 1100.23 246.253C1096.35 246.253 1093.44 246.848 1091.5 248.041C1089.56 249.084 1088.59 250.649 1088.59 252.736C1088.59 254.972 1089.86 256.76 1092.4 258.101C1094.93 259.444 1098.21 260.635 1102.24 261.679C1106.27 262.722 1110.52 263.989 1115 265.48C1119.47 266.97 1123.72 268.983 1127.75 271.516C1131.78 274.05 1135.06 277.479 1137.59 281.801C1140.13 285.975 1141.4 291.49 1141.4 298.346C1141.4 308.929 1137.37 317.349 1129.32 323.61C1121.41 329.87 1110.67 333 1097.1 333ZM1258.72 330.317C1250.6 330.317 1243.41 325.078 1240.92 317.351L1201.25 194.058C1197.81 183.39 1205.77 172.471 1216.98 172.471V172.471C1224.24 172.471 1230.65 177.215 1232.78 184.161L1264.35 287.325C1265.34 290.581 1262.91 293.874 1259.5 293.874V293.874C1256.11 293.874 1253.68 290.607 1254.65 287.358L1285.01 185.657C1287.35 177.833 1294.54 172.471 1302.71 172.471V172.471C1310.88 172.471 1318.07 177.833 1320.41 185.657L1350.8 287.459C1351.76 290.658 1349.36 293.874 1346.02 293.874V293.874C1342.67 293.874 1340.28 290.639 1341.25 287.435L1372.67 184.11C1374.77 177.197 1381.14 172.471 1388.37 172.471V172.471C1399.5 172.471 1407.41 183.317 1404 193.914L1364.27 317.351C1361.79 325.078 1354.6 330.317 1346.48 330.317V330.317C1338.23 330.317 1330.95 324.906 1328.58 317.003L1297.97 215.132C1297.04 212.034 1299.36 208.915 1302.6 208.915V208.915C1305.83 208.915 1308.15 212.034 1307.22 215.132L1276.62 317.003C1274.24 324.906 1266.97 330.317 1258.72 330.317V330.317ZM1458.2 332.553C1448.21 332.553 1439.26 330.093 1431.35 325.175C1423.6 320.256 1417.41 313.549 1412.78 305.053C1408.3 296.557 1406.07 286.869 1406.07 275.987C1406.07 265.107 1408.3 255.419 1412.78 246.923C1417.41 238.427 1423.6 231.72 1431.35 226.801C1439.26 221.882 1448.21 219.423 1458.2 219.423C1465.51 219.423 1472.07 220.839 1477.89 223.671C1483.86 226.502 1488.71 230.453 1492.44 235.52C1496.17 240.439 1498.26 246.103 1498.71 252.512V299.464C1498.26 305.873 1496.17 311.611 1492.44 316.679C1488.86 321.597 1484.09 325.474 1478.11 328.305C1472.15 331.137 1465.51 332.553 1458.2 332.553ZM1465.14 301.7C1472.45 301.7 1478.34 299.314 1482.81 294.545C1487.29 289.626 1489.53 283.441 1489.53 275.987C1489.53 270.921 1488.48 266.449 1486.4 262.573C1484.46 258.698 1481.62 255.717 1477.89 253.63C1474.32 251.395 1470.14 250.276 1465.37 250.276C1460.59 250.276 1456.34 251.395 1452.61 253.63C1449.03 255.717 1446.12 258.698 1443.89 262.573C1441.8 266.449 1440.75 270.921 1440.75 275.987C1440.75 280.907 1441.8 285.303 1443.89 289.179C1445.97 293.054 1448.88 296.11 1452.61 298.346C1456.34 300.581 1460.52 301.7 1465.14 301.7ZM1504.97 330.317C1495.7 330.317 1488.19 322.806 1488.19 313.541V302.958C1488.19 301.675 1488.31 300.394 1488.56 299.134L1492.59 278.47C1493.08 275.945 1493.08 273.348 1492.59 270.822L1488.56 250.158C1488.31 248.898 1488.19 247.618 1488.19 246.334V238.435C1488.19 229.17 1495.7 221.659 1504.97 221.659V221.659C1514.23 221.659 1521.74 229.17 1521.74 238.435V313.541C1521.74 322.806 1514.23 330.317 1504.97 330.317V330.317ZM1562.97 330.317C1553.52 330.317 1545.85 322.652 1545.85 313.197V185.12C1545.85 175.665 1553.52 168 1562.97 168V168C1572.43 168 1580.09 175.665 1580.09 185.12V313.197C1580.09 322.652 1572.43 330.317 1562.97 330.317V330.317ZM1621.31 330.317C1611.85 330.317 1604.19 322.652 1604.19 313.197V185.12C1604.19 175.665 1611.85 168 1621.31 168V168C1630.76 168 1638.43 175.665 1638.43 185.12V313.197C1638.43 322.652 1630.76 330.317 1621.31 330.317V330.317ZM1716.23 332.777C1704.45 332.777 1693.94 330.392 1684.68 325.622C1675.59 320.703 1668.43 313.921 1663.2 305.276C1657.98 296.632 1655.38 286.869 1655.38 275.987C1655.38 265.107 1657.92 255.419 1662.99 246.923C1668.21 238.278 1675.22 231.496 1684.02 226.577C1692.82 221.659 1702.74 219.199 1713.77 219.199C1724.51 219.199 1733.98 221.51 1742.19 226.13C1750.39 230.75 1756.8 237.16 1761.44 245.358C1766.2 253.556 1768.59 262.946 1768.59 273.529C1768.59 275.466 1768.45 277.553 1768.14 279.788V279.788C1767.84 284.133 1763.91 287.175 1759.56 287.185L1685.05 287.362C1678.55 287.378 1673.28 282.117 1673.28 275.622V275.622C1673.28 269.151 1678.51 263.9 1684.98 263.882L1741.01 263.724C1744.43 263.714 1745.78 268.156 1742.93 270.053V270.053C1740.67 271.561 1737.6 269.974 1737.24 267.277C1736.77 263.754 1735.96 260.696 1734.8 258.101C1733.01 253.929 1730.33 250.798 1726.76 248.711C1723.32 246.476 1719.07 245.358 1714 245.358C1708.62 245.358 1703.93 246.624 1699.9 249.158C1696.02 251.543 1692.97 254.972 1690.72 259.444C1688.64 263.915 1687.59 269.355 1687.59 275.765C1687.59 282.174 1688.72 287.689 1690.95 292.309C1693.34 296.78 1696.62 300.283 1700.8 302.817C1705.12 305.202 1710.19 306.395 1716.02 306.395C1721.38 306.395 1726.23 305.501 1730.55 303.711V303.711C1737.58 300.567 1746.57 299.814 1752.01 305.255V305.255C1756.95 310.187 1757.35 318.284 1751.68 322.348C1748.49 324.635 1745.03 326.547 1741.3 328.082C1733.69 331.212 1725.34 332.777 1716.23 332.777ZM1815.27 330.317C1805.82 330.317 1798.16 322.655 1798.16 313.203V193.833C1798.16 184.381 1805.82 176.719 1815.27 176.719V176.719C1824.72 176.719 1832.38 184.381 1832.38 193.833V313.203C1832.38 322.655 1824.72 330.317 1815.27 330.317V330.317ZM1788.07 250.724C1780.05 250.724 1773.54 244.217 1773.54 236.191V236.191C1773.54 228.165 1780.05 221.659 1788.07 221.659H1842.47C1850.49 221.659 1857 228.165 1857 236.191V236.191C1857 244.217 1850.49 250.724 1842.47 250.724H1788.07Z" fill="url(#paint1_linear_1585_1990)"/>
<defs>
<linearGradient id="paint0_linear_1585_1990" x1="-205.026" y1="250.507" x2="731.922" y2="250.507" gradientUnits="userSpaceOnUse">
<stop stop-color="#FF0F7B"/>
<stop offset="1" stop-color="#F89B29"/>
</linearGradient>
<linearGradient id="paint1_linear_1585_1990" x1="60.5926" y1="250.667" x2="2447.94" y2="250.667" gradientUnits="userSpaceOnUse">
<stop stop-color="#FF0F7B"/>
<stop offset="1" stop-color="#F89B29"/>
</linearGradient>
</defs>
</svg>
