<svg width="500" height="500" viewBox="0 0 500 500" fill="none" xmlns="http://www.w3.org/2000/svg">
<rect width="500" height="500" rx="20" fill="url(#paint0_linear_1571_1409)"/>
<path fill-rule="evenodd" clip-rule="evenodd" d="M263.353 80.5101C259.935 81.3727 256.079 83.2985 253.42 85.471C251.757 86.8293 230.51 114.836 169.769 195.744C124.986 255.393 87.3497 305.403 86.1314 306.876C78.2819 316.37 77.9395 329.287 85.2753 339.171C86.0731 340.246 103.514 357.856 124.031 378.305C160.279 414.428 161.429 415.527 164.578 417.049C170.419 419.871 176.555 420.555 182.469 419.044C186.751 417.95 189.228 416.638 193.517 413.193C195.487 411.61 205.684 403.871 216.177 395.995C226.67 388.117 244.084 375.034 254.874 366.918C331.553 309.246 355.628 291.143 382.032 271.306C398.505 258.931 412.785 247.914 413.763 246.827C417.38 242.812 419.826 236.156 419.826 230.339C419.826 225.409 418.104 219.862 415.327 215.839C414.656 214.868 385.137 185.07 349.73 149.622C280.765 80.5776 283.454 83.1152 277.101 81.0777C273.482 79.9168 266.797 79.6408 263.353 80.5101ZM269.599 109.165C265.04 109.983 260.008 112.647 257.096 115.786C256.257 116.69 251.559 122.586 246.655 128.89C236.258 142.257 176.895 218.234 157.224 243.355C149.789 252.849 143.706 260.733 143.706 260.877C143.706 261.214 150.943 265.871 155.567 268.513C161.175 271.717 172.735 277.276 178.329 279.461C192.45 284.975 201.083 286.836 215.289 287.433C225.459 287.86 231.833 288.74 239.904 290.836C254.593 294.65 271.78 302.828 284.876 312.238C286.801 313.62 288.405 314.491 288.701 314.316C290.315 313.35 385.805 241.502 386.569 240.676C388.202 238.914 390.535 234.663 391.394 231.886C392.598 227.989 392.535 221.542 391.257 217.792C389.113 211.509 391.548 214.085 338.701 162.2C324.331 148.092 307.508 131.555 301.316 125.451C295.118 119.34 288.975 113.664 287.649 112.821C282.745 109.706 275.155 108.169 269.599 109.165Z" fill="#FFFDFD"/>
<defs>
<linearGradient id="paint0_linear_1571_1409" x1="-205.026" y1="250.507" x2="731.922" y2="250.507" gradientUnits="userSpaceOnUse">
<stop stop-color="#FF0F7B"/>
<stop offset="1" stop-color="#F89B29"/>
</linearGradient>
</defs>
</svg>
