<svg width="500" height="500" viewBox="0 0 500 500" fill="none" xmlns="http://www.w3.org/2000/svg">
<path d="M250 500C388.071 500 500 388.071 500 250C500 111.929 388.071 0 250 0C111.929 0 0 111.929 0 250C0 388.071 111.929 500 250 500Z" fill="url(#paint0_linear_1584_1263)"/>
<path fill-rule="evenodd" clip-rule="evenodd" d="M263.437 80.5941C260.019 81.4567 256.164 83.3824 253.504 85.555C251.841 86.9133 230.595 114.92 169.853 195.828C125.071 255.477 87.4339 305.487 86.2156 306.96C78.3661 316.454 78.0237 329.371 85.3595 339.254C86.1574 340.33 103.598 357.94 124.116 378.389C160.363 414.512 161.514 415.611 164.663 417.133C170.503 419.955 176.639 420.639 182.553 419.128C186.835 418.034 189.312 416.722 193.601 413.277C195.571 411.694 205.769 403.955 216.262 396.079C226.755 388.201 244.169 375.118 254.959 367.002C331.637 309.33 355.712 291.227 382.116 271.39C398.59 259.015 412.869 247.998 413.848 246.911C417.464 242.896 419.91 236.24 419.91 230.423C419.91 225.493 418.189 219.946 415.411 215.923C414.74 214.952 385.221 185.154 349.814 149.706C280.85 80.6616 283.538 83.1991 277.185 81.1616C273.566 80.0007 266.882 79.7248 263.437 80.5941ZM269.683 109.249C265.125 110.067 260.093 112.731 257.18 115.87C256.342 116.774 251.643 122.67 246.74 128.974C236.342 142.341 176.98 218.318 157.308 243.439C149.873 252.933 143.791 260.817 143.791 260.961C143.791 261.298 151.027 265.955 155.651 268.597C161.26 271.801 172.819 277.36 178.413 279.545C192.535 285.059 201.167 286.92 215.373 287.517C225.543 287.944 231.917 288.824 239.988 290.92C254.677 294.734 271.864 302.912 284.96 312.322C286.885 313.704 288.489 314.575 288.785 314.4C290.399 313.434 385.889 241.586 386.653 240.76C388.286 238.998 390.619 234.747 391.479 231.97C392.682 228.073 392.62 221.626 391.341 217.876C389.197 211.593 391.632 214.169 338.785 162.284C324.415 148.176 307.592 131.639 301.4 125.535C295.202 119.424 289.06 113.748 287.733 112.905C282.829 109.79 275.239 108.253 269.683 109.249Z" fill="#FFFDFD"/>
<defs>
<linearGradient id="paint0_linear_1584_1263" x1="-205.026" y1="250.507" x2="731.922" y2="250.507" gradientUnits="userSpaceOnUse">
<stop stop-color="#FF0F7B"/>
<stop offset="1" stop-color="#F89B29"/>
</linearGradient>
</defs>
</svg>
